<?xml version="1.0" standalone="no"?>
<!DOCTYPE svg PUBLIC "-//W3C//DTD SVG 20010904//EN"
 "http://www.w3.org/TR/2001/REC-SVG-20010904/DTD/svg10.dtd">
<svg version="1.0" xmlns="http://www.w3.org/2000/svg"
 width="200.000000pt" height="200.000000pt" viewBox="0 0 200.000000 200.000000"
 preserveAspectRatio="xMidYMid meet">
<metadata>
Created by potrace 1.14, written by Peter Selinger 2001-2017
</metadata>
<g transform="translate(0.000000,200.000000) scale(0.100000,-0.100000)"
fill="#000000" stroke="none">
<path d="M929 1703 l-26 -16 29 -60 c17 -33 37 -97 45 -141 8 -45 19 -94 23
-111 7 -26 8 -24 9 20 2 90 -32 325 -47 325 -4 0 -19 -8 -33 -17z"/>
<path d="M1101 1633 c-54 -53 -79 -147 -43 -156 88 -25 157 -13 196 33 28 34
64 135 52 147 -4 5 -43 10 -87 12 l-79 3 -39 -39z"/>
<path d="M782 1564 c-12 -8 -22 -21 -22 -29 0 -23 59 -65 92 -65 29 0 88 27
88 41 0 4 -13 21 -29 38 -23 24 -37 31 -68 31 -21 0 -49 -7 -61 -16z"/>
<path d="M765 1375 c-33 -7 -73 -18 -88 -24 -46 -18 -84 -14 -101 11 -9 12
-16 18 -16 12 0 -6 9 -19 20 -29 21 -19 49 -18 166 9 61 13 78 14 121 3 61
-16 108 -6 53 11 -63 19 -94 21 -155 7z"/>
<path d="M1107 1376 c-26 -7 -50 -16 -54 -19 -6 -7 23 -12 42 -7 66 17 99 17
161 4 124 -27 143 -28 164 -9 11 10 20 23 20 29 0 6 -7 0 -16 -12 -19 -27 -49
-28 -129 -3 -88 27 -134 31 -188 17z"/>
<path d="M1207 1310 c-43 -8 -65 -24 -48 -34 6 -4 19 -2 30 4 11 5 28 10 38 9
12 0 7 -6 -15 -17 -23 -11 -31 -21 -26 -31 31 -76 28 -128 -11 -185 -23 -34
-23 -36 -6 -46 99 -53 231 26 231 139 0 109 -84 179 -193 161z"/>
<path d="M710 1288 c-69 -48 -92 -152 -47 -219 24 -36 96 -79 134 -79 13 0 39
7 58 15 l35 14 -24 35 c-44 65 -42 150 5 210 l20 26 -26 10 c-47 18 -119 12
-155 -12z m56 -21 c-58 -33 -81 -69 -81 -127 0 -54 -13 -53 -21 1 -9 62 61
149 120 149 16 0 12 -6 -18 -23z"/>
<path d="M929 1286 c-100 -68 -86 -226 25 -277 52 -23 80 -23 132 0 113 51
125 215 21 280 -49 30 -131 29 -178 -3z m56 -19 c-52 -29 -89 -97 -80 -147 5
-28 4 -33 -6 -23 -18 18 -15 97 5 128 20 31 73 65 101 65 14 0 8 -7 -20 -23z"/>
<path d="M863 982 c-48 -18 -68 -53 -61 -103 5 -29 4 -30 -9 -14 -15 22 -17
44 -3 79 6 17 6 26 0 26 -17 0 -32 -52 -25 -87 8 -45 50 -91 94 -103 76 -20
152 28 167 106 10 52 -6 77 -57 92 -24 7 -48 14 -54 16 -5 2 -29 -4 -52 -12z"/>
<path d="M1082 981 c-23 -9 -40 -20 -36 -23 12 -13 5 -100 -11 -124 -20 -31
-14 -40 35 -55 33 -10 44 -9 82 9 52 25 78 66 78 119 0 55 -3 57 -90 86 -8 3
-34 -3 -58 -12z"/>
<path d="M955 761 c-38 -22 -57 -58 -50 -94 3 -19 1 -26 -6 -21 -7 4 -9 26 -7
55 5 51 -7 67 -18 24 -10 -41 4 -90 37 -121 25 -24 39 -29 79 -29 40 0 54 5
79 29 50 48 55 146 8 146 -12 1 -33 7 -47 15 -31 18 -38 18 -75 -4z"/>
<path d="M184 423 c16 -4 18 -12 13 -59 -3 -31 -2 -54 4 -54 5 0 9 15 9 33 0
51 10 76 34 80 11 2 -1 4 -29 4 -27 1 -42 -1 -31 -4z"/>
<path d="M266 374 c-7 -65 -1 -82 12 -33 5 20 16 35 26 37 16 3 18 -2 14 -32
-2 -20 0 -36 4 -36 4 0 8 19 8 41 0 39 -1 41 -26 36 -23 -4 -25 -2 -21 19 2
13 1 24 -3 24 -4 0 -10 -25 -14 -56z"/>
<path d="M476 393 c-11 -71 -9 -80 24 -85 17 -3 30 -1 30 4 0 4 -11 8 -25 8
-37 0 -29 33 10 43 18 4 17 5 -3 6 -37 2 -26 44 13 52 30 7 30 7 -6 8 -35 1
-37 -1 -43 -36z"/>
<path d="M746 419 c-10 -32 -15 -109 -7 -109 4 0 11 26 14 57 6 55 2 81 -7 52z"/>
<path d="M785 420 c3 -5 8 -10 11 -10 2 0 4 5 4 10 0 6 -5 10 -11 10 -5 0 -7
-4 -4 -10z"/>
<path d="M896 408 c-12 -58 -14 -98 -5 -98 5 0 9 10 9 23 0 23 17 47 32 47 4
0 8 -17 9 -37 l1 -38 9 30 c12 41 4 58 -25 51 -20 -5 -23 -3 -18 19 2 14 2 25
-2 25 -3 0 -8 -10 -10 -22z"/>
<path d="M1014 413 c2 -10 8 -37 11 -60 4 -24 10 -43 15 -43 4 0 16 20 26 44
19 47 34 44 34 -6 0 -48 20 -41 46 18 14 31 23 59 20 62 -3 3 -15 -17 -27 -44
l-22 -49 -12 50 -12 50 -24 -50 -23 -50 -10 48 c-5 26 -13 47 -18 47 -5 0 -7
-8 -4 -17z"/>
<path d="M1441 404 c-26 -33 -27 -58 -1 -84 23 -23 30 -24 53 -7 16 11 14 12
-15 12 -30 0 -33 3 -36 31 -4 41 22 68 55 59 16 -4 22 -2 18 5 -12 19 -53 10
-74 -16z"/>
<path d="M1620 408 c0 -13 -3 -41 -6 -63 -4 -27 -2 -35 4 -25 13 21 22 110 11
110 -5 0 -9 -10 -9 -22z"/>
<path d="M1660 393 c0 -21 -3 -49 -6 -63 -5 -17 -3 -22 3 -15 14 14 25 115 13
115 -6 0 -10 -17 -10 -37z"/>
<path d="M362 378 c-30 -30 -1 -90 35 -69 17 10 16 10 -4 11 -35 0 -36 17 -2
29 17 6 29 16 27 23 -6 18 -41 21 -56 6z m48 -3 c0 -2 -9 -9 -20 -15 -16 -9
-20 -8 -20 5 0 8 9 15 20 15 11 0 20 -2 20 -5z"/>
<path d="M565 381 c-3 -2 -5 -20 -4 -40 l0 -36 12 35 c7 20 20 36 31 38 17 4
18 0 13 -32 -3 -20 -2 -36 4 -36 5 0 9 18 9 40 0 39 -1 40 -30 38 -17 -1 -33
-4 -35 -7z"/>
<path d="M653 374 c-3 -8 0 -21 6 -27 9 -9 11 -8 6 5 -7 17 19 37 31 25 12
-12 -9 -56 -29 -59 -26 -4 -34 -33 -12 -42 28 -10 58 12 51 39 -3 13 -2 35 4
49 9 24 8 26 -21 26 -18 0 -32 -6 -36 -16z m35 -80 c-9 -9 -21 -13 -27 -10
-20 13 -11 26 16 26 25 0 26 -1 11 -16z"/>
<path d="M778 350 c-2 -22 -1 -40 3 -40 4 0 9 18 11 40 2 22 1 40 -3 40 -4 0
-9 -18 -11 -40z"/>
<path d="M823 375 c-3 -9 2 -22 12 -29 22 -16 12 -38 -13 -29 -13 4 -14 3 -6
-6 13 -14 40 -5 48 15 3 7 -3 18 -14 24 -26 14 -25 28 3 33 l22 4 -23 2 c-12
0 -25 -6 -29 -14z"/>
<path d="M1178 350 c-2 -22 -1 -40 3 -40 4 0 9 18 11 40 2 22 1 40 -3 40 -4 0
-9 -18 -11 -40z"/>
<path d="M1218 348 c-2 -21 0 -38 4 -38 5 0 8 11 8 24 0 25 23 51 38 42 5 -3
7 -20 5 -38 -3 -28 -2 -30 7 -15 6 10 10 28 8 40 -2 17 -10 22 -35 22 -29 1
-32 -2 -35 -37z"/>
<path d="M1312 365 c-18 -40 6 -73 43 -59 24 10 17 22 -9 17 -20 -4 -23 -1
-23 22 0 15 6 29 14 32 20 8 30 -6 13 -18 -13 -9 -13 -10 0 -6 8 2 16 11 18
20 6 29 -43 22 -56 -8z"/>
<path d="M1542 378 c-17 -17 -15 -65 3 -72 17 -6 45 2 45 14 0 4 -11 5 -24 3
-22 -5 -25 -2 -22 23 3 27 36 49 36 25 0 -6 -5 -11 -12 -11 -6 0 -8 -3 -5 -6
9 -9 38 16 31 27 -8 13 -38 11 -52 -3z"/>
<path d="M1706 374 c-18 -18 -21 -60 -5 -70 6 -3 15 -2 21 4 6 6 17 8 24 5 11
-4 14 5 14 36 0 34 -3 41 -19 41 -11 0 -27 -7 -35 -16z m44 -5 c0 -20 -21 -49
-35 -49 -18 0 -20 31 -3 48 15 15 38 16 38 1z"/>
<path d="M1786 365 c-11 -40 -5 -61 7 -27 7 18 19 37 27 42 11 7 10 9 -7 7
-13 0 -24 -10 -27 -22z"/>
</g>
</svg>
